<svg width="49" height="49" viewBox="0 0 49 49" fill="none" xmlns="http://www.w3.org/2000/svg">
<path d="M24.0454 40.1212C28.2969 40.1212 32.3743 38.4323 35.3806 35.426C38.3869 32.4197 40.0758 28.3424 40.0758 24.0909C40.0758 19.8394 38.3869 15.762 35.3806 12.7557C32.3743 9.74946 28.2969 8.06055 24.0454 8.06055C19.7939 8.06055 15.7166 9.74946 12.7103 12.7557C9.70405 15.762 8.01514 19.8394 8.01514 24.0909C8.01514 28.3424 9.70405 32.4197 12.7103 35.426C15.7166 38.4323 19.7939 40.1212 24.0454 40.1212V40.1212ZM24.0454 44.1287C12.9785 44.1287 4.00757 35.1578 4.00757 24.0909C4.00757 13.0239 12.9785 4.05298 24.0454 4.05298C35.1124 4.05298 44.0833 13.0239 44.0833 24.0909C44.0833 35.1578 35.1124 44.1287 24.0454 44.1287Z" fill="#009688"/>
<path d="M24.0454 40.1212C24.9431 40.1212 26.2877 38.983 27.546 36.4683C29.119 33.3223 30.0568 28.8839 30.0568 24.0909C30.0568 19.2978 29.119 14.8594 27.546 11.7135C26.2877 9.19871 24.9411 8.06055 24.0454 8.06055C23.1477 8.06055 21.8032 9.19871 20.5448 11.7135C18.9718 14.8594 18.0341 19.2978 18.0341 24.0909C18.0341 28.8839 18.9718 33.3223 20.5448 36.4683C21.8032 38.983 23.1497 40.1212 24.0454 40.1212ZM24.0454 44.1287C18.513 44.1287 14.0265 35.1578 14.0265 24.0909C14.0265 13.0239 18.513 4.05298 24.0454 4.05298C29.5779 4.05298 34.0644 13.0239 34.0644 24.0909C34.0644 35.1578 29.5779 44.1287 24.0454 44.1287Z" fill="#009688"/>
<path d="M8.01514 28.0987H40.0757V32.1062H8.01514V28.0987ZM8.01514 16.0759H40.0757V20.0835H8.01514V16.0759Z" fill="#009688"/>
</svg>
