<svg width="303" height="49" viewBox="0 0 303 49" fill="none" xmlns="http://www.w3.org/2000/svg">
<path d="M80.1537 31.9811V38H59.2968V8.32378H79.7775V14.3426H66.1515V20.1107H77.8548V25.6697H66.1515V31.9811H80.1537Z" fill="#009688"/>
<path d="M96.4093 38.2089C94.4587 38.2089 92.6196 37.8467 90.892 37.1222C89.1923 36.3699 87.6736 35.3249 86.3361 33.9874C85.0264 32.622 83.9954 31.0198 83.2431 29.1807C82.5186 27.3137 82.1564 25.2378 82.1564 22.9529C82.1564 20.8909 82.5186 18.9682 83.2431 17.1848C83.9954 15.4015 85.0404 13.8271 86.3779 12.4617C87.7433 11.0963 89.3176 10.0375 91.101 9.28512C92.9122 8.5049 94.8628 8.11479 96.9526 8.11479C99.6834 8.11479 102.08 8.69996 104.142 9.87029C106.232 11.0406 107.792 12.615 108.823 14.5934L103.724 18.4388C103.055 17.1291 102.08 16.0981 100.798 15.3457C99.5162 14.5934 98.1508 14.2172 96.7019 14.2172C95.1972 14.2172 93.8736 14.6213 92.7311 15.4293C91.5886 16.2096 90.697 17.2824 90.0561 18.6477C89.4152 20.0131 89.0947 21.5318 89.0947 23.2037C89.0947 24.9034 89.4291 26.436 90.0979 27.8014C90.7666 29.1389 91.6862 30.1978 92.8565 30.978C94.0547 31.7303 95.434 32.1065 96.9944 32.1065C99.6695 32.1065 102.08 30.8805 104.225 28.4283V27.467H98.4574V22.4931H109.91V38H104.225V35.0741C101.968 37.164 99.363 38.2089 96.4093 38.2089Z" fill="#009688"/>
<path d="M127.441 38.2507C125.239 38.2507 123.233 37.8328 121.422 36.9968C119.638 36.133 118.092 34.9905 116.782 33.5694C115.473 32.1205 114.469 30.5043 113.773 28.7209C113.076 26.9097 112.728 25.0428 112.728 23.1201C112.728 21.1695 113.09 19.3026 113.815 17.5192C114.567 15.708 115.598 14.1058 116.908 12.7125C118.245 11.2914 119.82 10.1768 121.631 9.36872C123.442 8.56063 125.42 8.15659 127.566 8.15659C129.767 8.15659 131.76 8.5885 133.543 9.45231C135.354 10.2883 136.901 11.4307 138.183 12.8797C139.492 14.3287 140.495 15.9588 141.192 17.77C141.889 19.5534 142.237 21.3785 142.237 23.2455C142.237 25.196 141.861 27.0769 141.108 28.8881C140.384 30.6715 139.353 32.2737 138.015 33.6948C136.706 35.0881 135.145 36.2027 133.334 37.0386C131.551 37.8467 129.586 38.2507 127.441 38.2507ZM119.708 23.2037C119.708 24.7362 120.001 26.1852 120.586 27.5506C121.171 28.8881 122.049 29.9888 123.219 30.8526C124.389 31.7164 125.811 32.1483 127.482 32.1483C129.21 32.1483 130.645 31.7025 131.788 30.8108C132.958 29.9191 133.822 28.7906 134.379 27.4252C134.964 26.032 135.257 24.5969 135.257 23.1201C135.257 21.5875 134.95 20.1525 134.337 18.8149C133.752 17.4496 132.874 16.3489 131.704 15.5129C130.561 14.677 129.154 14.259 127.482 14.259C125.755 14.259 124.306 14.7049 123.135 15.5965C121.993 16.4603 121.129 17.5749 120.544 18.9403C119.987 20.3057 119.708 21.7268 119.708 23.2037Z" fill="#009688"/>
<path d="M163.84 17.0176C163.757 16.9062 163.464 16.6972 162.963 16.3907C162.461 16.0842 161.834 15.7637 161.082 15.4293C160.329 15.0671 159.507 14.7745 158.616 14.5516C157.724 14.3008 156.832 14.1754 155.941 14.1754C153.488 14.1754 152.262 14.9974 152.262 16.6415C152.262 17.6446 152.792 18.3552 153.851 18.7731C154.937 19.1911 156.484 19.6927 158.49 20.2778C160.385 20.8073 162.015 21.4203 163.381 22.1169C164.774 22.7857 165.847 23.6913 166.599 24.8338C167.351 25.9484 167.727 27.4252 167.727 29.2643C167.727 30.9362 167.421 32.3573 166.808 33.5276C166.195 34.6701 165.359 35.6036 164.3 36.3281C163.241 37.0247 162.043 37.5402 160.705 37.8746C159.396 38.1811 158.03 38.3343 156.609 38.3343C154.408 38.3343 152.179 38.0139 149.922 37.373C147.665 36.7042 145.672 35.7986 143.945 34.6562L146.954 28.6791C147.066 28.8185 147.428 29.0832 148.041 29.4733C148.654 29.8355 149.42 30.2256 150.34 30.6436C151.259 31.0616 152.262 31.4238 153.349 31.7303C154.464 32.009 155.592 32.1483 156.735 32.1483C159.159 32.1483 160.371 31.4099 160.371 29.9331C160.371 29.1807 160.051 28.5955 159.41 28.1776C158.797 27.7317 157.947 27.3555 156.86 27.049C155.773 26.7147 154.547 26.3385 153.182 25.9205C150.451 25.0846 148.431 24.0675 147.121 22.8693C145.84 21.6711 145.199 19.9574 145.199 17.7282C145.199 15.6383 145.686 13.8828 146.662 12.4617C147.665 11.0127 149.002 9.92602 150.674 9.20153C152.346 8.44918 154.171 8.073 156.15 8.073C158.239 8.073 160.218 8.43524 162.085 9.15973C163.952 9.85635 165.54 10.5808 166.85 11.3332L163.84 17.0176Z" fill="#009688"/>
<path d="M171.75 38V8.32378H184.414C185.836 8.32378 187.131 8.61636 188.302 9.20153C189.5 9.75883 190.531 10.5251 191.395 11.5004C192.258 12.4478 192.927 13.5206 193.401 14.7188C193.875 15.917 194.111 17.1291 194.111 18.3552C194.111 20.0828 193.707 21.7129 192.899 23.2455C192.119 24.778 191.018 26.032 189.597 27.0072C188.176 27.9546 186.518 28.4283 184.623 28.4283H178.605V38H171.75ZM178.605 22.4513H184.205C185.014 22.4513 185.71 22.103 186.295 21.4064C186.88 20.7098 187.173 19.6927 187.173 18.3552C187.173 16.9898 186.825 15.9866 186.128 15.3457C185.459 14.677 184.735 14.3426 183.955 14.3426H178.605V22.4513Z" fill="#009688"/>
<path d="M223.33 8.32378V38H216.475V25.8369H204.646V38H197.792V8.32378H204.646V19.8181H216.475V8.32378H223.33Z" fill="#009688"/>
<path d="M249.874 31.9811V38H229.017V8.32378H249.498V14.3426H235.872V20.1107H247.575V25.6697H235.872V31.9811H249.874Z" fill="#009688"/>
<path d="M254.038 38V8.32378H267.414C268.807 8.32378 270.089 8.61636 271.259 9.20153C272.457 9.75883 273.488 10.5251 274.352 11.5004C275.216 12.4478 275.885 13.5206 276.358 14.7188C276.86 15.917 277.111 17.1291 277.111 18.3552C277.111 20.1943 276.665 21.894 275.773 23.4545C274.909 24.987 273.739 26.1574 272.262 26.9654L278.783 38H271.217L265.533 28.4283H260.893V38H254.038ZM260.893 22.4513H267.163C267.971 22.4513 268.668 22.0751 269.253 21.3228C269.838 20.5426 270.13 19.5534 270.13 18.3552C270.13 17.157 269.796 16.1956 269.127 15.4711C268.459 14.7188 267.734 14.3426 266.954 14.3426H260.893V22.4513Z" fill="#009688"/>
<path d="M302.896 31.9811V38H282.039V8.32378H302.52V14.3426H288.894V20.1107H300.598V25.6697H288.894V31.9811H302.896Z" fill="#009688"/>
<path d="M24.0454 40.1212C28.2969 40.1212 32.3743 38.4323 35.3806 35.426C38.3869 32.4197 40.0758 28.3424 40.0758 24.0909C40.0758 19.8394 38.3869 15.762 35.3806 12.7557C32.3743 9.74946 28.2969 8.06055 24.0454 8.06055C19.7939 8.06055 15.7166 9.74946 12.7103 12.7557C9.70405 15.762 8.01514 19.8394 8.01514 24.0909C8.01514 28.3424 9.70405 32.4197 12.7103 35.426C15.7166 38.4323 19.7939 40.1212 24.0454 40.1212ZM24.0454 44.1287C12.9785 44.1287 4.00757 35.1578 4.00757 24.0909C4.00757 13.0239 12.9785 4.05298 24.0454 4.05298C35.1124 4.05298 44.0833 13.0239 44.0833 24.0909C44.0833 35.1578 35.1124 44.1287 24.0454 44.1287Z" fill="#009688"/>
<path d="M24.0454 40.1212C24.9431 40.1212 26.2877 38.983 27.546 36.4683C29.119 33.3223 30.0568 28.8839 30.0568 24.0909C30.0568 19.2978 29.119 14.8594 27.546 11.7135C26.2877 9.19871 24.9411 8.06055 24.0454 8.06055C23.1477 8.06055 21.8032 9.19871 20.5448 11.7135C18.9718 14.8594 18.0341 19.2978 18.0341 24.0909C18.0341 28.8839 18.9718 33.3223 20.5448 36.4683C21.8032 38.983 23.1497 40.1212 24.0454 40.1212ZM24.0454 44.1287C18.513 44.1287 14.0265 35.1578 14.0265 24.0909C14.0265 13.0239 18.513 4.05298 24.0454 4.05298C29.5779 4.05298 34.0644 13.0239 34.0644 24.0909C34.0644 35.1578 29.5779 44.1287 24.0454 44.1287Z" fill="#009688"/>
<path d="M8.01514 28.0987H40.0757V32.1062H8.01514V28.0987ZM8.01514 16.0759H40.0757V20.0835H8.01514V16.0759Z" fill="#009688"/>
</svg>
